<mxfile host="app.diagrams.net" agent="Mozilla/5.0 (Windows NT 10.0; Win64; x64) AppleWebKit/537.36 (KHTML, like Gecko) Chrome/127.0.0.0 Safari/537.36 OPR/113.0.0.0" version="24.7.17">
  <diagram name="Page-1" id="1T9q2uKg43zC3ERSsSPe">
    <mxGraphModel dx="2404" dy="982" grid="1" gridSize="10" guides="1" tooltips="1" connect="1" arrows="1" fold="1" page="1" pageScale="1" pageWidth="850" pageHeight="1100" math="0" shadow="0">
      <root>
        <mxCell id="0" />
        <mxCell id="1" parent="0" />
        <mxCell id="E2C0H4jiC9S_GUauyO6q-8" value="OPTIONS" style="shape=table;startSize=30;container=1;collapsible=1;childLayout=tableLayout;fixedRows=1;rowLines=0;fontStyle=1;align=center;resizeLast=1;fontSize=14;fontFamily=Georgia;" vertex="1" parent="1">
          <mxGeometry x="-720" y="360" width="290" height="150" as="geometry" />
        </mxCell>
        <mxCell id="E2C0H4jiC9S_GUauyO6q-9" value="" style="shape=tableRow;horizontal=0;startSize=0;swimlaneHead=0;swimlaneBody=0;fillColor=none;collapsible=0;dropTarget=0;points=[[0,0.5],[1,0.5]];portConstraint=eastwest;strokeColor=inherit;top=0;left=0;right=0;bottom=0;fontSize=14;align=center;fontFamily=Georgia;fontStyle=0" vertex="1" parent="E2C0H4jiC9S_GUauyO6q-8">
          <mxGeometry y="30" width="290" height="30" as="geometry" />
        </mxCell>
        <mxCell id="E2C0H4jiC9S_GUauyO6q-10" value="" style="shape=partialRectangle;overflow=hidden;connectable=0;fillColor=none;strokeColor=inherit;top=0;left=0;bottom=0;right=0;fontSize=14;align=center;fontFamily=Georgia;fontStyle=0" vertex="1" parent="E2C0H4jiC9S_GUauyO6q-9">
          <mxGeometry width="30" height="30" as="geometry">
            <mxRectangle width="30" height="30" as="alternateBounds" />
          </mxGeometry>
        </mxCell>
        <mxCell id="E2C0H4jiC9S_GUauyO6q-11" value="`id` int(11) NOT NULL" style="shape=partialRectangle;overflow=hidden;connectable=0;fillColor=none;align=center;strokeColor=inherit;top=0;left=0;bottom=0;right=0;spacingLeft=6;fontSize=14;fontFamily=Georgia;fontStyle=0" vertex="1" parent="E2C0H4jiC9S_GUauyO6q-9">
          <mxGeometry x="30" width="260" height="30" as="geometry">
            <mxRectangle width="260" height="30" as="alternateBounds" />
          </mxGeometry>
        </mxCell>
        <mxCell id="E2C0H4jiC9S_GUauyO6q-12" value="" style="shape=tableRow;horizontal=0;startSize=0;swimlaneHead=0;swimlaneBody=0;fillColor=none;collapsible=0;dropTarget=0;points=[[0,0.5],[1,0.5]];portConstraint=eastwest;strokeColor=inherit;top=0;left=0;right=0;bottom=0;fontSize=14;align=center;fontFamily=Georgia;fontStyle=0" vertex="1" parent="E2C0H4jiC9S_GUauyO6q-8">
          <mxGeometry y="60" width="290" height="30" as="geometry" />
        </mxCell>
        <mxCell id="E2C0H4jiC9S_GUauyO6q-13" value="" style="shape=partialRectangle;overflow=hidden;connectable=0;fillColor=none;strokeColor=inherit;top=0;left=0;bottom=0;right=0;fontSize=14;align=center;fontFamily=Georgia;fontStyle=0" vertex="1" parent="E2C0H4jiC9S_GUauyO6q-12">
          <mxGeometry width="30" height="30" as="geometry">
            <mxRectangle width="30" height="30" as="alternateBounds" />
          </mxGeometry>
        </mxCell>
        <mxCell id="E2C0H4jiC9S_GUauyO6q-14" value="`question_id` int(11) NOT NULL" style="shape=partialRectangle;overflow=hidden;connectable=0;fillColor=none;align=center;strokeColor=inherit;top=0;left=0;bottom=0;right=0;spacingLeft=6;fontSize=14;fontFamily=Georgia;fontStyle=0" vertex="1" parent="E2C0H4jiC9S_GUauyO6q-12">
          <mxGeometry x="30" width="260" height="30" as="geometry">
            <mxRectangle width="260" height="30" as="alternateBounds" />
          </mxGeometry>
        </mxCell>
        <mxCell id="E2C0H4jiC9S_GUauyO6q-15" value="" style="shape=tableRow;horizontal=0;startSize=0;swimlaneHead=0;swimlaneBody=0;fillColor=none;collapsible=0;dropTarget=0;points=[[0,0.5],[1,0.5]];portConstraint=eastwest;strokeColor=inherit;top=0;left=0;right=0;bottom=0;fontSize=14;align=center;fontFamily=Georgia;fontStyle=0" vertex="1" parent="E2C0H4jiC9S_GUauyO6q-8">
          <mxGeometry y="90" width="290" height="30" as="geometry" />
        </mxCell>
        <mxCell id="E2C0H4jiC9S_GUauyO6q-16" value="" style="shape=partialRectangle;overflow=hidden;connectable=0;fillColor=none;strokeColor=inherit;top=0;left=0;bottom=0;right=0;fontSize=14;align=center;fontFamily=Georgia;fontStyle=0" vertex="1" parent="E2C0H4jiC9S_GUauyO6q-15">
          <mxGeometry width="30" height="30" as="geometry">
            <mxRectangle width="30" height="30" as="alternateBounds" />
          </mxGeometry>
        </mxCell>
        <mxCell id="E2C0H4jiC9S_GUauyO6q-17" value="`option_text` varchar(255) DEFAULT NULL" style="shape=partialRectangle;overflow=hidden;connectable=0;fillColor=none;align=center;strokeColor=inherit;top=0;left=0;bottom=0;right=0;spacingLeft=6;fontSize=14;fontFamily=Georgia;fontStyle=0" vertex="1" parent="E2C0H4jiC9S_GUauyO6q-15">
          <mxGeometry x="30" width="260" height="30" as="geometry">
            <mxRectangle width="260" height="30" as="alternateBounds" />
          </mxGeometry>
        </mxCell>
        <mxCell id="E2C0H4jiC9S_GUauyO6q-18" value="" style="shape=tableRow;horizontal=0;startSize=0;swimlaneHead=0;swimlaneBody=0;fillColor=none;collapsible=0;dropTarget=0;points=[[0,0.5],[1,0.5]];portConstraint=eastwest;strokeColor=inherit;top=0;left=0;right=0;bottom=0;fontSize=14;align=center;fontFamily=Georgia;fontStyle=0" vertex="1" parent="E2C0H4jiC9S_GUauyO6q-8">
          <mxGeometry y="120" width="290" height="30" as="geometry" />
        </mxCell>
        <mxCell id="E2C0H4jiC9S_GUauyO6q-19" value="" style="shape=partialRectangle;overflow=hidden;connectable=0;fillColor=none;strokeColor=inherit;top=0;left=0;bottom=0;right=0;fontSize=14;align=center;fontFamily=Georgia;fontStyle=0" vertex="1" parent="E2C0H4jiC9S_GUauyO6q-18">
          <mxGeometry width="30" height="30" as="geometry">
            <mxRectangle width="30" height="30" as="alternateBounds" />
          </mxGeometry>
        </mxCell>
        <mxCell id="E2C0H4jiC9S_GUauyO6q-20" value="`tally` int(11) NOT NULL" style="shape=partialRectangle;overflow=hidden;connectable=0;fillColor=none;align=center;strokeColor=inherit;top=0;left=0;bottom=0;right=0;spacingLeft=6;fontSize=14;fontFamily=Georgia;fontStyle=0" vertex="1" parent="E2C0H4jiC9S_GUauyO6q-18">
          <mxGeometry x="30" width="260" height="30" as="geometry">
            <mxRectangle width="260" height="30" as="alternateBounds" />
          </mxGeometry>
        </mxCell>
        <mxCell id="E2C0H4jiC9S_GUauyO6q-21" value="QUESTIONS" style="shape=table;startSize=30;container=1;collapsible=1;childLayout=tableLayout;fixedRows=1;rowLines=0;fontStyle=1;align=center;resizeLast=1;fontSize=14;fontFamily=Georgia;" vertex="1" parent="1">
          <mxGeometry x="-720" y="50" width="270" height="150" as="geometry" />
        </mxCell>
        <mxCell id="E2C0H4jiC9S_GUauyO6q-22" value="" style="shape=tableRow;horizontal=0;startSize=0;swimlaneHead=0;swimlaneBody=0;fillColor=none;collapsible=0;dropTarget=0;points=[[0,0.5],[1,0.5]];portConstraint=eastwest;strokeColor=inherit;top=0;left=0;right=0;bottom=0;fontSize=14;align=center;fontFamily=Georgia;fontStyle=0" vertex="1" parent="E2C0H4jiC9S_GUauyO6q-21">
          <mxGeometry y="30" width="270" height="30" as="geometry" />
        </mxCell>
        <mxCell id="E2C0H4jiC9S_GUauyO6q-23" value="" style="shape=partialRectangle;overflow=hidden;connectable=0;fillColor=none;strokeColor=inherit;top=0;left=0;bottom=0;right=0;fontSize=14;align=center;fontFamily=Georgia;fontStyle=0" vertex="1" parent="E2C0H4jiC9S_GUauyO6q-22">
          <mxGeometry width="30" height="30" as="geometry">
            <mxRectangle width="30" height="30" as="alternateBounds" />
          </mxGeometry>
        </mxCell>
        <mxCell id="E2C0H4jiC9S_GUauyO6q-24" value="`id` int(11) NOT NULL" style="shape=partialRectangle;overflow=hidden;connectable=0;fillColor=none;align=center;strokeColor=inherit;top=0;left=0;bottom=0;right=0;spacingLeft=6;fontSize=14;fontFamily=Georgia;fontStyle=0" vertex="1" parent="E2C0H4jiC9S_GUauyO6q-22">
          <mxGeometry x="30" width="240" height="30" as="geometry">
            <mxRectangle width="240" height="30" as="alternateBounds" />
          </mxGeometry>
        </mxCell>
        <mxCell id="E2C0H4jiC9S_GUauyO6q-25" value="" style="shape=tableRow;horizontal=0;startSize=0;swimlaneHead=0;swimlaneBody=0;fillColor=none;collapsible=0;dropTarget=0;points=[[0,0.5],[1,0.5]];portConstraint=eastwest;strokeColor=inherit;top=0;left=0;right=0;bottom=0;fontSize=14;align=center;fontFamily=Georgia;fontStyle=0" vertex="1" parent="E2C0H4jiC9S_GUauyO6q-21">
          <mxGeometry y="60" width="270" height="30" as="geometry" />
        </mxCell>
        <mxCell id="E2C0H4jiC9S_GUauyO6q-26" value="" style="shape=partialRectangle;overflow=hidden;connectable=0;fillColor=none;strokeColor=inherit;top=0;left=0;bottom=0;right=0;fontSize=14;align=center;fontFamily=Georgia;fontStyle=0" vertex="1" parent="E2C0H4jiC9S_GUauyO6q-25">
          <mxGeometry width="30" height="30" as="geometry">
            <mxRectangle width="30" height="30" as="alternateBounds" />
          </mxGeometry>
        </mxCell>
        <mxCell id="E2C0H4jiC9S_GUauyO6q-27" value="`survey_id` int(11) NOT NULL" style="shape=partialRectangle;overflow=hidden;connectable=0;fillColor=none;align=center;strokeColor=inherit;top=0;left=0;bottom=0;right=0;spacingLeft=6;fontSize=14;fontFamily=Georgia;fontStyle=0" vertex="1" parent="E2C0H4jiC9S_GUauyO6q-25">
          <mxGeometry x="30" width="240" height="30" as="geometry">
            <mxRectangle width="240" height="30" as="alternateBounds" />
          </mxGeometry>
        </mxCell>
        <mxCell id="E2C0H4jiC9S_GUauyO6q-28" value="" style="shape=tableRow;horizontal=0;startSize=0;swimlaneHead=0;swimlaneBody=0;fillColor=none;collapsible=0;dropTarget=0;points=[[0,0.5],[1,0.5]];portConstraint=eastwest;strokeColor=inherit;top=0;left=0;right=0;bottom=0;fontSize=14;align=center;fontFamily=Georgia;fontStyle=0" vertex="1" parent="E2C0H4jiC9S_GUauyO6q-21">
          <mxGeometry y="90" width="270" height="30" as="geometry" />
        </mxCell>
        <mxCell id="E2C0H4jiC9S_GUauyO6q-29" value="" style="shape=partialRectangle;overflow=hidden;connectable=0;fillColor=none;strokeColor=inherit;top=0;left=0;bottom=0;right=0;fontSize=14;align=center;fontFamily=Georgia;fontStyle=0" vertex="1" parent="E2C0H4jiC9S_GUauyO6q-28">
          <mxGeometry width="30" height="30" as="geometry">
            <mxRectangle width="30" height="30" as="alternateBounds" />
          </mxGeometry>
        </mxCell>
        <mxCell id="E2C0H4jiC9S_GUauyO6q-30" value="`question_text` text NOT NULL" style="shape=partialRectangle;overflow=hidden;connectable=0;fillColor=none;align=center;strokeColor=inherit;top=0;left=0;bottom=0;right=0;spacingLeft=6;fontSize=14;fontFamily=Georgia;fontStyle=0" vertex="1" parent="E2C0H4jiC9S_GUauyO6q-28">
          <mxGeometry x="30" width="240" height="30" as="geometry">
            <mxRectangle width="240" height="30" as="alternateBounds" />
          </mxGeometry>
        </mxCell>
        <mxCell id="E2C0H4jiC9S_GUauyO6q-31" value="" style="shape=tableRow;horizontal=0;startSize=0;swimlaneHead=0;swimlaneBody=0;fillColor=none;collapsible=0;dropTarget=0;points=[[0,0.5],[1,0.5]];portConstraint=eastwest;strokeColor=inherit;top=0;left=0;right=0;bottom=0;fontSize=14;align=center;fontFamily=Georgia;fontStyle=0" vertex="1" parent="E2C0H4jiC9S_GUauyO6q-21">
          <mxGeometry y="120" width="270" height="30" as="geometry" />
        </mxCell>
        <mxCell id="E2C0H4jiC9S_GUauyO6q-32" value="" style="shape=partialRectangle;overflow=hidden;connectable=0;fillColor=none;strokeColor=inherit;top=0;left=0;bottom=0;right=0;fontSize=14;align=center;fontFamily=Georgia;fontStyle=0" vertex="1" parent="E2C0H4jiC9S_GUauyO6q-31">
          <mxGeometry width="30" height="30" as="geometry">
            <mxRectangle width="30" height="30" as="alternateBounds" />
          </mxGeometry>
        </mxCell>
        <mxCell id="E2C0H4jiC9S_GUauyO6q-33" value="`question_type` varchar(50) NOT NULL" style="shape=partialRectangle;overflow=hidden;connectable=0;fillColor=none;align=center;strokeColor=inherit;top=0;left=0;bottom=0;right=0;spacingLeft=6;fontSize=14;fontFamily=Georgia;fontStyle=0" vertex="1" parent="E2C0H4jiC9S_GUauyO6q-31">
          <mxGeometry x="30" width="240" height="30" as="geometry">
            <mxRectangle width="240" height="30" as="alternateBounds" />
          </mxGeometry>
        </mxCell>
        <mxCell id="E2C0H4jiC9S_GUauyO6q-34" value="SURVEYS" style="shape=table;startSize=30;container=1;collapsible=1;childLayout=tableLayout;fixedRows=1;rowLines=0;fontStyle=1;align=center;resizeLast=1;fontSize=14;fontFamily=Georgia;" vertex="1" parent="1">
          <mxGeometry x="-290" y="210" width="480" height="280" as="geometry" />
        </mxCell>
        <mxCell id="E2C0H4jiC9S_GUauyO6q-35" value="" style="shape=tableRow;horizontal=0;startSize=0;swimlaneHead=0;swimlaneBody=0;fillColor=none;collapsible=0;dropTarget=0;points=[[0,0.5],[1,0.5]];portConstraint=eastwest;strokeColor=inherit;top=0;left=0;right=0;bottom=0;fontSize=14;align=center;fontFamily=Georgia;fontStyle=0" vertex="1" parent="E2C0H4jiC9S_GUauyO6q-34">
          <mxGeometry y="30" width="480" height="30" as="geometry" />
        </mxCell>
        <mxCell id="E2C0H4jiC9S_GUauyO6q-36" value="" style="shape=partialRectangle;overflow=hidden;connectable=0;fillColor=none;strokeColor=inherit;top=0;left=0;bottom=0;right=0;fontSize=14;align=center;fontFamily=Georgia;fontStyle=0" vertex="1" parent="E2C0H4jiC9S_GUauyO6q-35">
          <mxGeometry width="30" height="30" as="geometry">
            <mxRectangle width="30" height="30" as="alternateBounds" />
          </mxGeometry>
        </mxCell>
        <mxCell id="E2C0H4jiC9S_GUauyO6q-37" value="`id` int(11) NOT NULL" style="shape=partialRectangle;overflow=hidden;connectable=0;fillColor=none;align=center;strokeColor=inherit;top=0;left=0;bottom=0;right=0;spacingLeft=6;fontSize=14;fontFamily=Georgia;fontStyle=0" vertex="1" parent="E2C0H4jiC9S_GUauyO6q-35">
          <mxGeometry x="30" width="450" height="30" as="geometry">
            <mxRectangle width="450" height="30" as="alternateBounds" />
          </mxGeometry>
        </mxCell>
        <mxCell id="E2C0H4jiC9S_GUauyO6q-38" value="" style="shape=tableRow;horizontal=0;startSize=0;swimlaneHead=0;swimlaneBody=0;fillColor=none;collapsible=0;dropTarget=0;points=[[0,0.5],[1,0.5]];portConstraint=eastwest;strokeColor=inherit;top=0;left=0;right=0;bottom=0;fontSize=14;align=center;fontFamily=Georgia;fontStyle=0" vertex="1" parent="E2C0H4jiC9S_GUauyO6q-34">
          <mxGeometry y="60" width="480" height="30" as="geometry" />
        </mxCell>
        <mxCell id="E2C0H4jiC9S_GUauyO6q-39" value="" style="shape=partialRectangle;overflow=hidden;connectable=0;fillColor=none;strokeColor=inherit;top=0;left=0;bottom=0;right=0;fontSize=14;align=center;fontFamily=Georgia;fontStyle=0" vertex="1" parent="E2C0H4jiC9S_GUauyO6q-38">
          <mxGeometry width="30" height="30" as="geometry">
            <mxRectangle width="30" height="30" as="alternateBounds" />
          </mxGeometry>
        </mxCell>
        <mxCell id="E2C0H4jiC9S_GUauyO6q-40" value="`title` varchar(255) NOT NULL" style="shape=partialRectangle;overflow=hidden;connectable=0;fillColor=none;align=center;strokeColor=inherit;top=0;left=0;bottom=0;right=0;spacingLeft=6;fontSize=14;fontFamily=Georgia;fontStyle=0" vertex="1" parent="E2C0H4jiC9S_GUauyO6q-38">
          <mxGeometry x="30" width="450" height="30" as="geometry">
            <mxRectangle width="450" height="30" as="alternateBounds" />
          </mxGeometry>
        </mxCell>
        <mxCell id="E2C0H4jiC9S_GUauyO6q-41" value="" style="shape=tableRow;horizontal=0;startSize=0;swimlaneHead=0;swimlaneBody=0;fillColor=none;collapsible=0;dropTarget=0;points=[[0,0.5],[1,0.5]];portConstraint=eastwest;strokeColor=inherit;top=0;left=0;right=0;bottom=0;fontSize=14;align=center;fontFamily=Georgia;fontStyle=0" vertex="1" parent="E2C0H4jiC9S_GUauyO6q-34">
          <mxGeometry y="90" width="480" height="30" as="geometry" />
        </mxCell>
        <mxCell id="E2C0H4jiC9S_GUauyO6q-42" value="" style="shape=partialRectangle;overflow=hidden;connectable=0;fillColor=none;strokeColor=inherit;top=0;left=0;bottom=0;right=0;fontSize=14;align=center;fontFamily=Georgia;fontStyle=0" vertex="1" parent="E2C0H4jiC9S_GUauyO6q-41">
          <mxGeometry width="30" height="30" as="geometry">
            <mxRectangle width="30" height="30" as="alternateBounds" />
          </mxGeometry>
        </mxCell>
        <mxCell id="E2C0H4jiC9S_GUauyO6q-43" value="`description` text NOT NULL" style="shape=partialRectangle;overflow=hidden;connectable=0;fillColor=none;align=center;strokeColor=inherit;top=0;left=0;bottom=0;right=0;spacingLeft=6;fontSize=14;fontFamily=Georgia;fontStyle=0" vertex="1" parent="E2C0H4jiC9S_GUauyO6q-41">
          <mxGeometry x="30" width="450" height="30" as="geometry">
            <mxRectangle width="450" height="30" as="alternateBounds" />
          </mxGeometry>
        </mxCell>
        <mxCell id="E2C0H4jiC9S_GUauyO6q-44" value="" style="shape=tableRow;horizontal=0;startSize=0;swimlaneHead=0;swimlaneBody=0;fillColor=none;collapsible=0;dropTarget=0;points=[[0,0.5],[1,0.5]];portConstraint=eastwest;strokeColor=inherit;top=0;left=0;right=0;bottom=0;fontSize=14;align=center;fontFamily=Georgia;fontStyle=0" vertex="1" parent="E2C0H4jiC9S_GUauyO6q-34">
          <mxGeometry y="120" width="480" height="30" as="geometry" />
        </mxCell>
        <mxCell id="E2C0H4jiC9S_GUauyO6q-45" value="" style="shape=partialRectangle;overflow=hidden;connectable=0;fillColor=none;strokeColor=inherit;top=0;left=0;bottom=0;right=0;fontSize=14;align=center;fontFamily=Georgia;fontStyle=0" vertex="1" parent="E2C0H4jiC9S_GUauyO6q-44">
          <mxGeometry width="30" height="30" as="geometry">
            <mxRectangle width="30" height="30" as="alternateBounds" />
          </mxGeometry>
        </mxCell>
        <mxCell id="E2C0H4jiC9S_GUauyO6q-46" value="`user_id` int(11) NOT NULL" style="shape=partialRectangle;overflow=hidden;connectable=0;fillColor=none;align=center;strokeColor=inherit;top=0;left=0;bottom=0;right=0;spacingLeft=6;fontSize=14;fontFamily=Georgia;fontStyle=0" vertex="1" parent="E2C0H4jiC9S_GUauyO6q-44">
          <mxGeometry x="30" width="450" height="30" as="geometry">
            <mxRectangle width="450" height="30" as="alternateBounds" />
          </mxGeometry>
        </mxCell>
        <mxCell id="E2C0H4jiC9S_GUauyO6q-47" value="" style="shape=tableRow;horizontal=0;startSize=0;swimlaneHead=0;swimlaneBody=0;fillColor=none;collapsible=0;dropTarget=0;points=[[0,0.5],[1,0.5]];portConstraint=eastwest;strokeColor=inherit;top=0;left=0;right=0;bottom=0;fontSize=14;align=center;fontFamily=Georgia;fontStyle=0" vertex="1" parent="E2C0H4jiC9S_GUauyO6q-34">
          <mxGeometry y="150" width="480" height="30" as="geometry" />
        </mxCell>
        <mxCell id="E2C0H4jiC9S_GUauyO6q-48" value="" style="shape=partialRectangle;overflow=hidden;connectable=0;fillColor=none;strokeColor=inherit;top=0;left=0;bottom=0;right=0;fontSize=14;align=center;fontFamily=Georgia;fontStyle=0" vertex="1" parent="E2C0H4jiC9S_GUauyO6q-47">
          <mxGeometry width="30" height="30" as="geometry">
            <mxRectangle width="30" height="30" as="alternateBounds" />
          </mxGeometry>
        </mxCell>
        <mxCell id="E2C0H4jiC9S_GUauyO6q-49" value="`status` enum(&#39;approved&#39;,&#39;pending&#39;,&#39;declined&#39;) DEFAULT &#39;pending&#39;" style="shape=partialRectangle;overflow=hidden;connectable=0;fillColor=none;align=center;strokeColor=inherit;top=0;left=0;bottom=0;right=0;spacingLeft=6;fontSize=14;fontFamily=Georgia;fontStyle=0" vertex="1" parent="E2C0H4jiC9S_GUauyO6q-47">
          <mxGeometry x="30" width="450" height="30" as="geometry">
            <mxRectangle width="450" height="30" as="alternateBounds" />
          </mxGeometry>
        </mxCell>
        <mxCell id="E2C0H4jiC9S_GUauyO6q-50" value="" style="shape=tableRow;horizontal=0;startSize=0;swimlaneHead=0;swimlaneBody=0;fillColor=none;collapsible=0;dropTarget=0;points=[[0,0.5],[1,0.5]];portConstraint=eastwest;strokeColor=inherit;top=0;left=0;right=0;bottom=0;fontSize=14;align=center;fontFamily=Georgia;fontStyle=0" vertex="1" parent="E2C0H4jiC9S_GUauyO6q-34">
          <mxGeometry y="180" width="480" height="30" as="geometry" />
        </mxCell>
        <mxCell id="E2C0H4jiC9S_GUauyO6q-51" value="" style="shape=partialRectangle;overflow=hidden;connectable=0;fillColor=none;strokeColor=inherit;top=0;left=0;bottom=0;right=0;fontSize=14;align=center;fontFamily=Georgia;fontStyle=0" vertex="1" parent="E2C0H4jiC9S_GUauyO6q-50">
          <mxGeometry width="30" height="30" as="geometry">
            <mxRectangle width="30" height="30" as="alternateBounds" />
          </mxGeometry>
        </mxCell>
        <mxCell id="E2C0H4jiC9S_GUauyO6q-52" value="`comment` varchar(255) NOT NULL" style="shape=partialRectangle;overflow=hidden;connectable=0;fillColor=none;align=center;strokeColor=inherit;top=0;left=0;bottom=0;right=0;spacingLeft=6;fontSize=14;fontFamily=Georgia;fontStyle=0" vertex="1" parent="E2C0H4jiC9S_GUauyO6q-50">
          <mxGeometry x="30" width="450" height="30" as="geometry">
            <mxRectangle width="450" height="30" as="alternateBounds" />
          </mxGeometry>
        </mxCell>
        <mxCell id="E2C0H4jiC9S_GUauyO6q-53" value="" style="shape=tableRow;horizontal=0;startSize=0;swimlaneHead=0;swimlaneBody=0;fillColor=none;collapsible=0;dropTarget=0;points=[[0,0.5],[1,0.5]];portConstraint=eastwest;strokeColor=inherit;top=0;left=0;right=0;bottom=0;fontSize=14;align=center;fontFamily=Georgia;fontStyle=0" vertex="1" parent="E2C0H4jiC9S_GUauyO6q-34">
          <mxGeometry y="210" width="480" height="30" as="geometry" />
        </mxCell>
        <mxCell id="E2C0H4jiC9S_GUauyO6q-54" value="" style="shape=partialRectangle;overflow=hidden;connectable=0;fillColor=none;strokeColor=inherit;top=0;left=0;bottom=0;right=0;fontSize=14;align=center;fontFamily=Georgia;fontStyle=0" vertex="1" parent="E2C0H4jiC9S_GUauyO6q-53">
          <mxGeometry width="30" height="30" as="geometry">
            <mxRectangle width="30" height="30" as="alternateBounds" />
          </mxGeometry>
        </mxCell>
        <mxCell id="E2C0H4jiC9S_GUauyO6q-55" value="`category_id` int(11) DEFAULT NULL" style="shape=partialRectangle;overflow=hidden;connectable=0;fillColor=none;align=center;strokeColor=inherit;top=0;left=0;bottom=0;right=0;spacingLeft=6;fontSize=14;fontFamily=Georgia;fontStyle=0" vertex="1" parent="E2C0H4jiC9S_GUauyO6q-53">
          <mxGeometry x="30" width="450" height="30" as="geometry">
            <mxRectangle width="450" height="30" as="alternateBounds" />
          </mxGeometry>
        </mxCell>
        <mxCell id="E2C0H4jiC9S_GUauyO6q-56" value="" style="shape=tableRow;horizontal=0;startSize=0;swimlaneHead=0;swimlaneBody=0;fillColor=none;collapsible=0;dropTarget=0;points=[[0,0.5],[1,0.5]];portConstraint=eastwest;strokeColor=inherit;top=0;left=0;right=0;bottom=0;fontSize=14;align=center;fontFamily=Georgia;fontStyle=0" vertex="1" parent="E2C0H4jiC9S_GUauyO6q-34">
          <mxGeometry y="240" width="480" height="40" as="geometry" />
        </mxCell>
        <mxCell id="E2C0H4jiC9S_GUauyO6q-57" value="" style="shape=partialRectangle;overflow=hidden;connectable=0;fillColor=none;strokeColor=inherit;top=0;left=0;bottom=0;right=0;fontSize=14;align=center;fontFamily=Georgia;fontStyle=0" vertex="1" parent="E2C0H4jiC9S_GUauyO6q-56">
          <mxGeometry width="30" height="40" as="geometry">
            <mxRectangle width="30" height="40" as="alternateBounds" />
          </mxGeometry>
        </mxCell>
        <mxCell id="E2C0H4jiC9S_GUauyO6q-58" value="`created_at` datetime DEFAULT current_timestamp()" style="shape=partialRectangle;overflow=hidden;connectable=0;fillColor=none;align=center;strokeColor=inherit;top=0;left=0;bottom=0;right=0;spacingLeft=6;fontSize=14;fontFamily=Georgia;fontStyle=0" vertex="1" parent="E2C0H4jiC9S_GUauyO6q-56">
          <mxGeometry x="30" width="450" height="40" as="geometry">
            <mxRectangle width="450" height="40" as="alternateBounds" />
          </mxGeometry>
        </mxCell>
        <mxCell id="E2C0H4jiC9S_GUauyO6q-59" value="SURVEY CATEGORIES" style="shape=table;startSize=30;container=1;collapsible=1;childLayout=tableLayout;fixedRows=1;rowLines=0;fontStyle=1;align=center;resizeLast=1;fontSize=14;fontFamily=Georgia;" vertex="1" parent="1">
          <mxGeometry x="60" y="570" width="280" height="120" as="geometry" />
        </mxCell>
        <mxCell id="E2C0H4jiC9S_GUauyO6q-60" value="" style="shape=tableRow;horizontal=0;startSize=0;swimlaneHead=0;swimlaneBody=0;fillColor=none;collapsible=0;dropTarget=0;points=[[0,0.5],[1,0.5]];portConstraint=eastwest;strokeColor=inherit;top=0;left=0;right=0;bottom=0;fontSize=14;align=center;fontFamily=Georgia;fontStyle=0" vertex="1" parent="E2C0H4jiC9S_GUauyO6q-59">
          <mxGeometry y="30" width="280" height="30" as="geometry" />
        </mxCell>
        <mxCell id="E2C0H4jiC9S_GUauyO6q-61" value="" style="shape=partialRectangle;overflow=hidden;connectable=0;fillColor=none;strokeColor=inherit;top=0;left=0;bottom=0;right=0;fontSize=14;align=center;fontFamily=Georgia;fontStyle=0" vertex="1" parent="E2C0H4jiC9S_GUauyO6q-60">
          <mxGeometry width="30" height="30" as="geometry">
            <mxRectangle width="30" height="30" as="alternateBounds" />
          </mxGeometry>
        </mxCell>
        <mxCell id="E2C0H4jiC9S_GUauyO6q-62" value="`id` int(11) NOT NULL" style="shape=partialRectangle;overflow=hidden;connectable=0;fillColor=none;align=center;strokeColor=inherit;top=0;left=0;bottom=0;right=0;spacingLeft=6;fontSize=14;fontFamily=Georgia;fontStyle=0" vertex="1" parent="E2C0H4jiC9S_GUauyO6q-60">
          <mxGeometry x="30" width="250" height="30" as="geometry">
            <mxRectangle width="250" height="30" as="alternateBounds" />
          </mxGeometry>
        </mxCell>
        <mxCell id="E2C0H4jiC9S_GUauyO6q-63" value="" style="shape=tableRow;horizontal=0;startSize=0;swimlaneHead=0;swimlaneBody=0;fillColor=none;collapsible=0;dropTarget=0;points=[[0,0.5],[1,0.5]];portConstraint=eastwest;strokeColor=inherit;top=0;left=0;right=0;bottom=0;fontSize=14;align=center;fontFamily=Georgia;fontStyle=0" vertex="1" parent="E2C0H4jiC9S_GUauyO6q-59">
          <mxGeometry y="60" width="280" height="30" as="geometry" />
        </mxCell>
        <mxCell id="E2C0H4jiC9S_GUauyO6q-64" value="" style="shape=partialRectangle;overflow=hidden;connectable=0;fillColor=none;strokeColor=inherit;top=0;left=0;bottom=0;right=0;fontSize=14;align=center;fontFamily=Georgia;fontStyle=0" vertex="1" parent="E2C0H4jiC9S_GUauyO6q-63">
          <mxGeometry width="30" height="30" as="geometry">
            <mxRectangle width="30" height="30" as="alternateBounds" />
          </mxGeometry>
        </mxCell>
        <mxCell id="E2C0H4jiC9S_GUauyO6q-65" value="`survey_id` int(11) NOT NULL" style="shape=partialRectangle;overflow=hidden;connectable=0;fillColor=none;align=center;strokeColor=inherit;top=0;left=0;bottom=0;right=0;spacingLeft=6;fontSize=14;fontFamily=Georgia;fontStyle=0" vertex="1" parent="E2C0H4jiC9S_GUauyO6q-63">
          <mxGeometry x="30" width="250" height="30" as="geometry">
            <mxRectangle width="250" height="30" as="alternateBounds" />
          </mxGeometry>
        </mxCell>
        <mxCell id="E2C0H4jiC9S_GUauyO6q-66" value="" style="shape=tableRow;horizontal=0;startSize=0;swimlaneHead=0;swimlaneBody=0;fillColor=none;collapsible=0;dropTarget=0;points=[[0,0.5],[1,0.5]];portConstraint=eastwest;strokeColor=inherit;top=0;left=0;right=0;bottom=0;fontSize=14;align=center;fontFamily=Georgia;fontStyle=0" vertex="1" parent="E2C0H4jiC9S_GUauyO6q-59">
          <mxGeometry y="90" width="280" height="30" as="geometry" />
        </mxCell>
        <mxCell id="E2C0H4jiC9S_GUauyO6q-67" value="" style="shape=partialRectangle;overflow=hidden;connectable=0;fillColor=none;strokeColor=inherit;top=0;left=0;bottom=0;right=0;fontSize=14;align=center;fontFamily=Georgia;fontStyle=0" vertex="1" parent="E2C0H4jiC9S_GUauyO6q-66">
          <mxGeometry width="30" height="30" as="geometry">
            <mxRectangle width="30" height="30" as="alternateBounds" />
          </mxGeometry>
        </mxCell>
        <mxCell id="E2C0H4jiC9S_GUauyO6q-68" value="`category_name` varchar(100) NOT NULL" style="shape=partialRectangle;overflow=hidden;connectable=0;fillColor=none;align=center;strokeColor=inherit;top=0;left=0;bottom=0;right=0;spacingLeft=6;fontSize=14;fontFamily=Georgia;fontStyle=0" vertex="1" parent="E2C0H4jiC9S_GUauyO6q-66">
          <mxGeometry x="30" width="250" height="30" as="geometry">
            <mxRectangle width="250" height="30" as="alternateBounds" />
          </mxGeometry>
        </mxCell>
        <mxCell id="E2C0H4jiC9S_GUauyO6q-69" value="SURVEY INTERACTIONS" style="shape=table;startSize=30;container=1;collapsible=1;childLayout=tableLayout;fixedRows=1;rowLines=0;fontStyle=1;align=center;resizeLast=1;fontSize=14;fontFamily=Georgia;" vertex="1" parent="1">
          <mxGeometry x="-530" y="590" width="320" height="210" as="geometry" />
        </mxCell>
        <mxCell id="E2C0H4jiC9S_GUauyO6q-70" value="" style="shape=tableRow;horizontal=0;startSize=0;swimlaneHead=0;swimlaneBody=0;fillColor=none;collapsible=0;dropTarget=0;points=[[0,0.5],[1,0.5]];portConstraint=eastwest;strokeColor=inherit;top=0;left=0;right=0;bottom=0;fontSize=14;align=center;fontFamily=Georgia;fontStyle=0" vertex="1" parent="E2C0H4jiC9S_GUauyO6q-69">
          <mxGeometry y="30" width="320" height="30" as="geometry" />
        </mxCell>
        <mxCell id="E2C0H4jiC9S_GUauyO6q-71" value="" style="shape=partialRectangle;overflow=hidden;connectable=0;fillColor=none;strokeColor=inherit;top=0;left=0;bottom=0;right=0;fontSize=14;align=center;fontFamily=Georgia;fontStyle=0" vertex="1" parent="E2C0H4jiC9S_GUauyO6q-70">
          <mxGeometry width="30" height="30" as="geometry">
            <mxRectangle width="30" height="30" as="alternateBounds" />
          </mxGeometry>
        </mxCell>
        <mxCell id="E2C0H4jiC9S_GUauyO6q-72" value="`id` int(11) NOT NULL" style="shape=partialRectangle;overflow=hidden;connectable=0;fillColor=none;align=center;strokeColor=inherit;top=0;left=0;bottom=0;right=0;spacingLeft=6;fontSize=14;fontFamily=Georgia;fontStyle=0" vertex="1" parent="E2C0H4jiC9S_GUauyO6q-70">
          <mxGeometry x="30" width="290" height="30" as="geometry">
            <mxRectangle width="290" height="30" as="alternateBounds" />
          </mxGeometry>
        </mxCell>
        <mxCell id="E2C0H4jiC9S_GUauyO6q-73" value="" style="shape=tableRow;horizontal=0;startSize=0;swimlaneHead=0;swimlaneBody=0;fillColor=none;collapsible=0;dropTarget=0;points=[[0,0.5],[1,0.5]];portConstraint=eastwest;strokeColor=inherit;top=0;left=0;right=0;bottom=0;fontSize=14;align=center;fontFamily=Georgia;fontStyle=0" vertex="1" parent="E2C0H4jiC9S_GUauyO6q-69">
          <mxGeometry y="60" width="320" height="30" as="geometry" />
        </mxCell>
        <mxCell id="E2C0H4jiC9S_GUauyO6q-74" value="" style="shape=partialRectangle;overflow=hidden;connectable=0;fillColor=none;strokeColor=inherit;top=0;left=0;bottom=0;right=0;fontSize=14;align=center;fontFamily=Georgia;fontStyle=0" vertex="1" parent="E2C0H4jiC9S_GUauyO6q-73">
          <mxGeometry width="30" height="30" as="geometry">
            <mxRectangle width="30" height="30" as="alternateBounds" />
          </mxGeometry>
        </mxCell>
        <mxCell id="E2C0H4jiC9S_GUauyO6q-75" value="`user_id` int(11) NOT NULL" style="shape=partialRectangle;overflow=hidden;connectable=0;fillColor=none;align=center;strokeColor=inherit;top=0;left=0;bottom=0;right=0;spacingLeft=6;fontSize=14;fontFamily=Georgia;fontStyle=0" vertex="1" parent="E2C0H4jiC9S_GUauyO6q-73">
          <mxGeometry x="30" width="290" height="30" as="geometry">
            <mxRectangle width="290" height="30" as="alternateBounds" />
          </mxGeometry>
        </mxCell>
        <mxCell id="E2C0H4jiC9S_GUauyO6q-76" value="" style="shape=tableRow;horizontal=0;startSize=0;swimlaneHead=0;swimlaneBody=0;fillColor=none;collapsible=0;dropTarget=0;points=[[0,0.5],[1,0.5]];portConstraint=eastwest;strokeColor=inherit;top=0;left=0;right=0;bottom=0;fontSize=14;align=center;fontFamily=Georgia;fontStyle=0" vertex="1" parent="E2C0H4jiC9S_GUauyO6q-69">
          <mxGeometry y="90" width="320" height="30" as="geometry" />
        </mxCell>
        <mxCell id="E2C0H4jiC9S_GUauyO6q-77" value="" style="shape=partialRectangle;overflow=hidden;connectable=0;fillColor=none;strokeColor=inherit;top=0;left=0;bottom=0;right=0;fontSize=14;align=center;fontFamily=Georgia;fontStyle=0" vertex="1" parent="E2C0H4jiC9S_GUauyO6q-76">
          <mxGeometry width="30" height="30" as="geometry">
            <mxRectangle width="30" height="30" as="alternateBounds" />
          </mxGeometry>
        </mxCell>
        <mxCell id="E2C0H4jiC9S_GUauyO6q-78" value="`survey_id` int(11) NOT NULL" style="shape=partialRectangle;overflow=hidden;connectable=0;fillColor=none;align=center;strokeColor=inherit;top=0;left=0;bottom=0;right=0;spacingLeft=6;fontSize=14;fontFamily=Georgia;fontStyle=0" vertex="1" parent="E2C0H4jiC9S_GUauyO6q-76">
          <mxGeometry x="30" width="290" height="30" as="geometry">
            <mxRectangle width="290" height="30" as="alternateBounds" />
          </mxGeometry>
        </mxCell>
        <mxCell id="E2C0H4jiC9S_GUauyO6q-79" value="" style="shape=tableRow;horizontal=0;startSize=0;swimlaneHead=0;swimlaneBody=0;fillColor=none;collapsible=0;dropTarget=0;points=[[0,0.5],[1,0.5]];portConstraint=eastwest;strokeColor=inherit;top=0;left=0;right=0;bottom=0;fontSize=14;align=center;fontFamily=Georgia;fontStyle=0" vertex="1" parent="E2C0H4jiC9S_GUauyO6q-69">
          <mxGeometry y="120" width="320" height="30" as="geometry" />
        </mxCell>
        <mxCell id="E2C0H4jiC9S_GUauyO6q-80" value="" style="shape=partialRectangle;overflow=hidden;connectable=0;fillColor=none;strokeColor=inherit;top=0;left=0;bottom=0;right=0;fontSize=14;align=center;fontFamily=Georgia;fontStyle=0" vertex="1" parent="E2C0H4jiC9S_GUauyO6q-79">
          <mxGeometry width="30" height="30" as="geometry">
            <mxRectangle width="30" height="30" as="alternateBounds" />
          </mxGeometry>
        </mxCell>
        <mxCell id="E2C0H4jiC9S_GUauyO6q-81" value="`interaction_type` enum(&#39;viewed&#39;,&#39;completed&#39;,&#39;liked&#39;,&#39;rated&#39;) NOT NULL" style="shape=partialRectangle;overflow=hidden;connectable=0;fillColor=none;align=center;strokeColor=inherit;top=0;left=0;bottom=0;right=0;spacingLeft=6;fontSize=14;fontFamily=Georgia;fontStyle=0" vertex="1" parent="E2C0H4jiC9S_GUauyO6q-79">
          <mxGeometry x="30" width="290" height="30" as="geometry">
            <mxRectangle width="290" height="30" as="alternateBounds" />
          </mxGeometry>
        </mxCell>
        <mxCell id="E2C0H4jiC9S_GUauyO6q-82" value="" style="shape=tableRow;horizontal=0;startSize=0;swimlaneHead=0;swimlaneBody=0;fillColor=none;collapsible=0;dropTarget=0;points=[[0,0.5],[1,0.5]];portConstraint=eastwest;strokeColor=inherit;top=0;left=0;right=0;bottom=0;fontSize=14;align=center;fontFamily=Georgia;fontStyle=0" vertex="1" parent="E2C0H4jiC9S_GUauyO6q-69">
          <mxGeometry y="150" width="320" height="30" as="geometry" />
        </mxCell>
        <mxCell id="E2C0H4jiC9S_GUauyO6q-83" value="" style="shape=partialRectangle;overflow=hidden;connectable=0;fillColor=none;strokeColor=inherit;top=0;left=0;bottom=0;right=0;fontSize=14;align=center;fontFamily=Georgia;fontStyle=0" vertex="1" parent="E2C0H4jiC9S_GUauyO6q-82">
          <mxGeometry width="30" height="30" as="geometry">
            <mxRectangle width="30" height="30" as="alternateBounds" />
          </mxGeometry>
        </mxCell>
        <mxCell id="E2C0H4jiC9S_GUauyO6q-84" value="`rating` int(11) DEFAULT NULL" style="shape=partialRectangle;overflow=hidden;connectable=0;fillColor=none;align=center;strokeColor=inherit;top=0;left=0;bottom=0;right=0;spacingLeft=6;fontSize=14;fontFamily=Georgia;fontStyle=0" vertex="1" parent="E2C0H4jiC9S_GUauyO6q-82">
          <mxGeometry x="30" width="290" height="30" as="geometry">
            <mxRectangle width="290" height="30" as="alternateBounds" />
          </mxGeometry>
        </mxCell>
        <mxCell id="E2C0H4jiC9S_GUauyO6q-85" value="" style="shape=tableRow;horizontal=0;startSize=0;swimlaneHead=0;swimlaneBody=0;fillColor=none;collapsible=0;dropTarget=0;points=[[0,0.5],[1,0.5]];portConstraint=eastwest;strokeColor=inherit;top=0;left=0;right=0;bottom=0;fontSize=14;align=center;fontFamily=Georgia;fontStyle=0" vertex="1" parent="E2C0H4jiC9S_GUauyO6q-69">
          <mxGeometry y="180" width="320" height="30" as="geometry" />
        </mxCell>
        <mxCell id="E2C0H4jiC9S_GUauyO6q-86" value="" style="shape=partialRectangle;overflow=hidden;connectable=0;fillColor=none;strokeColor=inherit;top=0;left=0;bottom=0;right=0;fontSize=14;align=center;fontFamily=Georgia;fontStyle=0" vertex="1" parent="E2C0H4jiC9S_GUauyO6q-85">
          <mxGeometry width="30" height="30" as="geometry">
            <mxRectangle width="30" height="30" as="alternateBounds" />
          </mxGeometry>
        </mxCell>
        <mxCell id="E2C0H4jiC9S_GUauyO6q-87" value="`interaction_date` datetime NOT NULL DEFAULT current_timestamp()" style="shape=partialRectangle;overflow=hidden;connectable=0;fillColor=none;align=center;strokeColor=inherit;top=0;left=0;bottom=0;right=0;spacingLeft=6;fontSize=14;fontFamily=Georgia;fontStyle=0" vertex="1" parent="E2C0H4jiC9S_GUauyO6q-85">
          <mxGeometry x="30" width="290" height="30" as="geometry">
            <mxRectangle width="290" height="30" as="alternateBounds" />
          </mxGeometry>
        </mxCell>
        <mxCell id="E2C0H4jiC9S_GUauyO6q-88" value="SURVEY RESPONSES" style="shape=table;startSize=30;container=1;collapsible=1;childLayout=tableLayout;fixedRows=1;rowLines=0;fontStyle=1;align=center;resizeLast=1;fontSize=14;fontFamily=Georgia;" vertex="1" parent="1">
          <mxGeometry x="240" y="20" width="320" height="240" as="geometry" />
        </mxCell>
        <mxCell id="E2C0H4jiC9S_GUauyO6q-89" value="" style="shape=tableRow;horizontal=0;startSize=0;swimlaneHead=0;swimlaneBody=0;fillColor=none;collapsible=0;dropTarget=0;points=[[0,0.5],[1,0.5]];portConstraint=eastwest;strokeColor=inherit;top=0;left=0;right=0;bottom=0;fontSize=14;align=center;fontFamily=Georgia;fontStyle=0" vertex="1" parent="E2C0H4jiC9S_GUauyO6q-88">
          <mxGeometry y="30" width="320" height="30" as="geometry" />
        </mxCell>
        <mxCell id="E2C0H4jiC9S_GUauyO6q-90" value="" style="shape=partialRectangle;overflow=hidden;connectable=0;fillColor=none;strokeColor=inherit;top=0;left=0;bottom=0;right=0;fontSize=14;align=center;fontFamily=Georgia;fontStyle=0" vertex="1" parent="E2C0H4jiC9S_GUauyO6q-89">
          <mxGeometry width="30" height="30" as="geometry">
            <mxRectangle width="30" height="30" as="alternateBounds" />
          </mxGeometry>
        </mxCell>
        <mxCell id="E2C0H4jiC9S_GUauyO6q-91" value="`id` int(11) NOT NULL" style="shape=partialRectangle;overflow=hidden;connectable=0;fillColor=none;align=center;strokeColor=inherit;top=0;left=0;bottom=0;right=0;spacingLeft=6;fontSize=14;fontFamily=Georgia;fontStyle=0" vertex="1" parent="E2C0H4jiC9S_GUauyO6q-89">
          <mxGeometry x="30" width="290" height="30" as="geometry">
            <mxRectangle width="290" height="30" as="alternateBounds" />
          </mxGeometry>
        </mxCell>
        <mxCell id="E2C0H4jiC9S_GUauyO6q-92" value="" style="shape=tableRow;horizontal=0;startSize=0;swimlaneHead=0;swimlaneBody=0;fillColor=none;collapsible=0;dropTarget=0;points=[[0,0.5],[1,0.5]];portConstraint=eastwest;strokeColor=inherit;top=0;left=0;right=0;bottom=0;fontSize=14;align=center;fontFamily=Georgia;fontStyle=0" vertex="1" parent="E2C0H4jiC9S_GUauyO6q-88">
          <mxGeometry y="60" width="320" height="30" as="geometry" />
        </mxCell>
        <mxCell id="E2C0H4jiC9S_GUauyO6q-93" value="" style="shape=partialRectangle;overflow=hidden;connectable=0;fillColor=none;strokeColor=inherit;top=0;left=0;bottom=0;right=0;fontSize=14;align=center;fontFamily=Georgia;fontStyle=0" vertex="1" parent="E2C0H4jiC9S_GUauyO6q-92">
          <mxGeometry width="30" height="30" as="geometry">
            <mxRectangle width="30" height="30" as="alternateBounds" />
          </mxGeometry>
        </mxCell>
        <mxCell id="E2C0H4jiC9S_GUauyO6q-94" value="`survey_id` int(11) NOT NULL" style="shape=partialRectangle;overflow=hidden;connectable=0;fillColor=none;align=center;strokeColor=inherit;top=0;left=0;bottom=0;right=0;spacingLeft=6;fontSize=14;fontFamily=Georgia;fontStyle=0" vertex="1" parent="E2C0H4jiC9S_GUauyO6q-92">
          <mxGeometry x="30" width="290" height="30" as="geometry">
            <mxRectangle width="290" height="30" as="alternateBounds" />
          </mxGeometry>
        </mxCell>
        <mxCell id="E2C0H4jiC9S_GUauyO6q-95" value="" style="shape=tableRow;horizontal=0;startSize=0;swimlaneHead=0;swimlaneBody=0;fillColor=none;collapsible=0;dropTarget=0;points=[[0,0.5],[1,0.5]];portConstraint=eastwest;strokeColor=inherit;top=0;left=0;right=0;bottom=0;fontSize=14;align=center;fontFamily=Georgia;fontStyle=0" vertex="1" parent="E2C0H4jiC9S_GUauyO6q-88">
          <mxGeometry y="90" width="320" height="30" as="geometry" />
        </mxCell>
        <mxCell id="E2C0H4jiC9S_GUauyO6q-96" value="" style="shape=partialRectangle;overflow=hidden;connectable=0;fillColor=none;strokeColor=inherit;top=0;left=0;bottom=0;right=0;fontSize=14;align=center;fontFamily=Georgia;fontStyle=0" vertex="1" parent="E2C0H4jiC9S_GUauyO6q-95">
          <mxGeometry width="30" height="30" as="geometry">
            <mxRectangle width="30" height="30" as="alternateBounds" />
          </mxGeometry>
        </mxCell>
        <mxCell id="E2C0H4jiC9S_GUauyO6q-97" value="`question_id` int(11) NOT NULL" style="shape=partialRectangle;overflow=hidden;connectable=0;fillColor=none;align=center;strokeColor=inherit;top=0;left=0;bottom=0;right=0;spacingLeft=6;fontSize=14;fontFamily=Georgia;fontStyle=0" vertex="1" parent="E2C0H4jiC9S_GUauyO6q-95">
          <mxGeometry x="30" width="290" height="30" as="geometry">
            <mxRectangle width="290" height="30" as="alternateBounds" />
          </mxGeometry>
        </mxCell>
        <mxCell id="E2C0H4jiC9S_GUauyO6q-98" value="" style="shape=tableRow;horizontal=0;startSize=0;swimlaneHead=0;swimlaneBody=0;fillColor=none;collapsible=0;dropTarget=0;points=[[0,0.5],[1,0.5]];portConstraint=eastwest;strokeColor=inherit;top=0;left=0;right=0;bottom=0;fontSize=14;align=center;fontFamily=Georgia;fontStyle=0" vertex="1" parent="E2C0H4jiC9S_GUauyO6q-88">
          <mxGeometry y="120" width="320" height="30" as="geometry" />
        </mxCell>
        <mxCell id="E2C0H4jiC9S_GUauyO6q-99" value="" style="shape=partialRectangle;overflow=hidden;connectable=0;fillColor=none;strokeColor=inherit;top=0;left=0;bottom=0;right=0;fontSize=14;align=center;fontFamily=Georgia;fontStyle=0" vertex="1" parent="E2C0H4jiC9S_GUauyO6q-98">
          <mxGeometry width="30" height="30" as="geometry">
            <mxRectangle width="30" height="30" as="alternateBounds" />
          </mxGeometry>
        </mxCell>
        <mxCell id="E2C0H4jiC9S_GUauyO6q-100" value="`question_type` varchar(255) NOT NULL" style="shape=partialRectangle;overflow=hidden;connectable=0;fillColor=none;align=center;strokeColor=inherit;top=0;left=0;bottom=0;right=0;spacingLeft=6;fontSize=14;fontFamily=Georgia;fontStyle=0" vertex="1" parent="E2C0H4jiC9S_GUauyO6q-98">
          <mxGeometry x="30" width="290" height="30" as="geometry">
            <mxRectangle width="290" height="30" as="alternateBounds" />
          </mxGeometry>
        </mxCell>
        <mxCell id="E2C0H4jiC9S_GUauyO6q-101" value="" style="shape=tableRow;horizontal=0;startSize=0;swimlaneHead=0;swimlaneBody=0;fillColor=none;collapsible=0;dropTarget=0;points=[[0,0.5],[1,0.5]];portConstraint=eastwest;strokeColor=inherit;top=0;left=0;right=0;bottom=0;fontSize=14;align=center;fontFamily=Georgia;fontStyle=0" vertex="1" parent="E2C0H4jiC9S_GUauyO6q-88">
          <mxGeometry y="150" width="320" height="30" as="geometry" />
        </mxCell>
        <mxCell id="E2C0H4jiC9S_GUauyO6q-102" value="" style="shape=partialRectangle;overflow=hidden;connectable=0;fillColor=none;strokeColor=inherit;top=0;left=0;bottom=0;right=0;fontSize=14;align=center;fontFamily=Georgia;fontStyle=0" vertex="1" parent="E2C0H4jiC9S_GUauyO6q-101">
          <mxGeometry width="30" height="30" as="geometry">
            <mxRectangle width="30" height="30" as="alternateBounds" />
          </mxGeometry>
        </mxCell>
        <mxCell id="E2C0H4jiC9S_GUauyO6q-103" value="`answer` text NOT NULL" style="shape=partialRectangle;overflow=hidden;connectable=0;fillColor=none;align=center;strokeColor=inherit;top=0;left=0;bottom=0;right=0;spacingLeft=6;fontSize=14;fontFamily=Georgia;fontStyle=0" vertex="1" parent="E2C0H4jiC9S_GUauyO6q-101">
          <mxGeometry x="30" width="290" height="30" as="geometry">
            <mxRectangle width="290" height="30" as="alternateBounds" />
          </mxGeometry>
        </mxCell>
        <mxCell id="E2C0H4jiC9S_GUauyO6q-104" value="" style="shape=tableRow;horizontal=0;startSize=0;swimlaneHead=0;swimlaneBody=0;fillColor=none;collapsible=0;dropTarget=0;points=[[0,0.5],[1,0.5]];portConstraint=eastwest;strokeColor=inherit;top=0;left=0;right=0;bottom=0;fontSize=14;align=center;fontFamily=Georgia;fontStyle=0" vertex="1" parent="E2C0H4jiC9S_GUauyO6q-88">
          <mxGeometry y="180" width="320" height="30" as="geometry" />
        </mxCell>
        <mxCell id="E2C0H4jiC9S_GUauyO6q-105" value="" style="shape=partialRectangle;overflow=hidden;connectable=0;fillColor=none;strokeColor=inherit;top=0;left=0;bottom=0;right=0;fontSize=14;align=center;fontFamily=Georgia;fontStyle=0" vertex="1" parent="E2C0H4jiC9S_GUauyO6q-104">
          <mxGeometry width="30" height="30" as="geometry">
            <mxRectangle width="30" height="30" as="alternateBounds" />
          </mxGeometry>
        </mxCell>
        <mxCell id="E2C0H4jiC9S_GUauyO6q-106" value="`sentiment_score` decimal(5,2) NOT NULL DEFAULT 0.00" style="shape=partialRectangle;overflow=hidden;connectable=0;fillColor=none;align=center;strokeColor=inherit;top=0;left=0;bottom=0;right=0;spacingLeft=6;fontSize=14;fontFamily=Georgia;fontStyle=0" vertex="1" parent="E2C0H4jiC9S_GUauyO6q-104">
          <mxGeometry x="30" width="290" height="30" as="geometry">
            <mxRectangle width="290" height="30" as="alternateBounds" />
          </mxGeometry>
        </mxCell>
        <mxCell id="E2C0H4jiC9S_GUauyO6q-107" value="" style="shape=tableRow;horizontal=0;startSize=0;swimlaneHead=0;swimlaneBody=0;fillColor=none;collapsible=0;dropTarget=0;points=[[0,0.5],[1,0.5]];portConstraint=eastwest;strokeColor=inherit;top=0;left=0;right=0;bottom=0;fontSize=14;align=center;fontFamily=Georgia;fontStyle=0" vertex="1" parent="E2C0H4jiC9S_GUauyO6q-88">
          <mxGeometry y="210" width="320" height="30" as="geometry" />
        </mxCell>
        <mxCell id="E2C0H4jiC9S_GUauyO6q-108" value="" style="shape=partialRectangle;overflow=hidden;connectable=0;fillColor=none;strokeColor=inherit;top=0;left=0;bottom=0;right=0;fontSize=14;align=center;fontFamily=Georgia;fontStyle=0" vertex="1" parent="E2C0H4jiC9S_GUauyO6q-107">
          <mxGeometry width="30" height="30" as="geometry">
            <mxRectangle width="30" height="30" as="alternateBounds" />
          </mxGeometry>
        </mxCell>
        <mxCell id="E2C0H4jiC9S_GUauyO6q-109" value="`option_score` int(11) NOT NULL DEFAULT 0" style="shape=partialRectangle;overflow=hidden;connectable=0;fillColor=none;align=center;strokeColor=inherit;top=0;left=0;bottom=0;right=0;spacingLeft=6;fontSize=14;fontFamily=Georgia;fontStyle=0" vertex="1" parent="E2C0H4jiC9S_GUauyO6q-107">
          <mxGeometry x="30" width="290" height="30" as="geometry">
            <mxRectangle width="290" height="30" as="alternateBounds" />
          </mxGeometry>
        </mxCell>
        <mxCell id="E2C0H4jiC9S_GUauyO6q-110" value="USERS" style="shape=table;startSize=30;container=1;collapsible=1;childLayout=tableLayout;fixedRows=1;rowLines=0;fontStyle=1;align=center;resizeLast=1;fontSize=14;fontFamily=Georgia;" vertex="1" parent="1">
          <mxGeometry x="490" y="300" width="285" height="390" as="geometry" />
        </mxCell>
        <mxCell id="E2C0H4jiC9S_GUauyO6q-111" value="" style="shape=tableRow;horizontal=0;startSize=0;swimlaneHead=0;swimlaneBody=0;fillColor=none;collapsible=0;dropTarget=0;points=[[0,0.5],[1,0.5]];portConstraint=eastwest;strokeColor=inherit;top=0;left=0;right=0;bottom=0;fontSize=14;align=center;fontFamily=Georgia;fontStyle=0" vertex="1" parent="E2C0H4jiC9S_GUauyO6q-110">
          <mxGeometry y="30" width="285" height="30" as="geometry" />
        </mxCell>
        <mxCell id="E2C0H4jiC9S_GUauyO6q-112" value="" style="shape=partialRectangle;overflow=hidden;connectable=0;fillColor=none;strokeColor=inherit;top=0;left=0;bottom=0;right=0;fontSize=14;align=center;fontFamily=Georgia;fontStyle=0" vertex="1" parent="E2C0H4jiC9S_GUauyO6q-111">
          <mxGeometry width="30" height="30" as="geometry">
            <mxRectangle width="30" height="30" as="alternateBounds" />
          </mxGeometry>
        </mxCell>
        <mxCell id="E2C0H4jiC9S_GUauyO6q-113" value="`id` int(11) NOT NULL" style="shape=partialRectangle;overflow=hidden;connectable=0;fillColor=none;align=center;strokeColor=inherit;top=0;left=0;bottom=0;right=0;spacingLeft=6;fontSize=14;fontFamily=Georgia;fontStyle=0" vertex="1" parent="E2C0H4jiC9S_GUauyO6q-111">
          <mxGeometry x="30" width="255" height="30" as="geometry">
            <mxRectangle width="255" height="30" as="alternateBounds" />
          </mxGeometry>
        </mxCell>
        <mxCell id="E2C0H4jiC9S_GUauyO6q-114" value="" style="shape=tableRow;horizontal=0;startSize=0;swimlaneHead=0;swimlaneBody=0;fillColor=none;collapsible=0;dropTarget=0;points=[[0,0.5],[1,0.5]];portConstraint=eastwest;strokeColor=inherit;top=0;left=0;right=0;bottom=0;fontSize=14;align=center;fontFamily=Georgia;fontStyle=0" vertex="1" parent="E2C0H4jiC9S_GUauyO6q-110">
          <mxGeometry y="60" width="285" height="30" as="geometry" />
        </mxCell>
        <mxCell id="E2C0H4jiC9S_GUauyO6q-115" value="" style="shape=partialRectangle;overflow=hidden;connectable=0;fillColor=none;strokeColor=inherit;top=0;left=0;bottom=0;right=0;fontSize=14;align=center;fontFamily=Georgia;fontStyle=0" vertex="1" parent="E2C0H4jiC9S_GUauyO6q-114">
          <mxGeometry width="30" height="30" as="geometry">
            <mxRectangle width="30" height="30" as="alternateBounds" />
          </mxGeometry>
        </mxCell>
        <mxCell id="E2C0H4jiC9S_GUauyO6q-116" value="`username` varchar(25) NOT NULL" style="shape=partialRectangle;overflow=hidden;connectable=0;fillColor=none;align=center;strokeColor=inherit;top=0;left=0;bottom=0;right=0;spacingLeft=6;fontSize=14;fontFamily=Georgia;fontStyle=0" vertex="1" parent="E2C0H4jiC9S_GUauyO6q-114">
          <mxGeometry x="30" width="255" height="30" as="geometry">
            <mxRectangle width="255" height="30" as="alternateBounds" />
          </mxGeometry>
        </mxCell>
        <mxCell id="E2C0H4jiC9S_GUauyO6q-117" value="" style="shape=tableRow;horizontal=0;startSize=0;swimlaneHead=0;swimlaneBody=0;fillColor=none;collapsible=0;dropTarget=0;points=[[0,0.5],[1,0.5]];portConstraint=eastwest;strokeColor=inherit;top=0;left=0;right=0;bottom=0;fontSize=14;align=center;fontFamily=Georgia;fontStyle=0" vertex="1" parent="E2C0H4jiC9S_GUauyO6q-110">
          <mxGeometry y="90" width="285" height="30" as="geometry" />
        </mxCell>
        <mxCell id="E2C0H4jiC9S_GUauyO6q-118" value="" style="shape=partialRectangle;overflow=hidden;connectable=0;fillColor=none;strokeColor=inherit;top=0;left=0;bottom=0;right=0;fontSize=14;align=center;fontFamily=Georgia;fontStyle=0" vertex="1" parent="E2C0H4jiC9S_GUauyO6q-117">
          <mxGeometry width="30" height="30" as="geometry">
            <mxRectangle width="30" height="30" as="alternateBounds" />
          </mxGeometry>
        </mxCell>
        <mxCell id="E2C0H4jiC9S_GUauyO6q-119" value="`firstname` varchar(25) NOT NULL" style="shape=partialRectangle;overflow=hidden;connectable=0;fillColor=none;align=center;strokeColor=inherit;top=0;left=0;bottom=0;right=0;spacingLeft=6;fontSize=14;fontFamily=Georgia;fontStyle=0" vertex="1" parent="E2C0H4jiC9S_GUauyO6q-117">
          <mxGeometry x="30" width="255" height="30" as="geometry">
            <mxRectangle width="255" height="30" as="alternateBounds" />
          </mxGeometry>
        </mxCell>
        <mxCell id="E2C0H4jiC9S_GUauyO6q-120" value="" style="shape=tableRow;horizontal=0;startSize=0;swimlaneHead=0;swimlaneBody=0;fillColor=none;collapsible=0;dropTarget=0;points=[[0,0.5],[1,0.5]];portConstraint=eastwest;strokeColor=inherit;top=0;left=0;right=0;bottom=0;fontSize=14;align=center;fontFamily=Georgia;fontStyle=0" vertex="1" parent="E2C0H4jiC9S_GUauyO6q-110">
          <mxGeometry y="120" width="285" height="30" as="geometry" />
        </mxCell>
        <mxCell id="E2C0H4jiC9S_GUauyO6q-121" value="" style="shape=partialRectangle;overflow=hidden;connectable=0;fillColor=none;strokeColor=inherit;top=0;left=0;bottom=0;right=0;fontSize=14;align=center;fontFamily=Georgia;fontStyle=0" vertex="1" parent="E2C0H4jiC9S_GUauyO6q-120">
          <mxGeometry width="30" height="30" as="geometry">
            <mxRectangle width="30" height="30" as="alternateBounds" />
          </mxGeometry>
        </mxCell>
        <mxCell id="E2C0H4jiC9S_GUauyO6q-122" value="`lastname` varchar(25) NOT NULL" style="shape=partialRectangle;overflow=hidden;connectable=0;fillColor=none;align=center;strokeColor=inherit;top=0;left=0;bottom=0;right=0;spacingLeft=6;fontSize=14;fontFamily=Georgia;fontStyle=0" vertex="1" parent="E2C0H4jiC9S_GUauyO6q-120">
          <mxGeometry x="30" width="255" height="30" as="geometry">
            <mxRectangle width="255" height="30" as="alternateBounds" />
          </mxGeometry>
        </mxCell>
        <mxCell id="E2C0H4jiC9S_GUauyO6q-123" value="" style="shape=tableRow;horizontal=0;startSize=0;swimlaneHead=0;swimlaneBody=0;fillColor=none;collapsible=0;dropTarget=0;points=[[0,0.5],[1,0.5]];portConstraint=eastwest;strokeColor=inherit;top=0;left=0;right=0;bottom=0;fontSize=14;align=center;fontFamily=Georgia;fontStyle=0" vertex="1" parent="E2C0H4jiC9S_GUauyO6q-110">
          <mxGeometry y="150" width="285" height="30" as="geometry" />
        </mxCell>
        <mxCell id="E2C0H4jiC9S_GUauyO6q-124" value="" style="shape=partialRectangle;overflow=hidden;connectable=0;fillColor=none;strokeColor=inherit;top=0;left=0;bottom=0;right=0;fontSize=14;align=center;fontFamily=Georgia;fontStyle=0" vertex="1" parent="E2C0H4jiC9S_GUauyO6q-123">
          <mxGeometry width="30" height="30" as="geometry">
            <mxRectangle width="30" height="30" as="alternateBounds" />
          </mxGeometry>
        </mxCell>
        <mxCell id="E2C0H4jiC9S_GUauyO6q-125" value="`gender` varchar(25) NOT NULL" style="shape=partialRectangle;overflow=hidden;connectable=0;fillColor=none;align=center;strokeColor=inherit;top=0;left=0;bottom=0;right=0;spacingLeft=6;fontSize=14;fontFamily=Georgia;fontStyle=0" vertex="1" parent="E2C0H4jiC9S_GUauyO6q-123">
          <mxGeometry x="30" width="255" height="30" as="geometry">
            <mxRectangle width="255" height="30" as="alternateBounds" />
          </mxGeometry>
        </mxCell>
        <mxCell id="E2C0H4jiC9S_GUauyO6q-126" value="" style="shape=tableRow;horizontal=0;startSize=0;swimlaneHead=0;swimlaneBody=0;fillColor=none;collapsible=0;dropTarget=0;points=[[0,0.5],[1,0.5]];portConstraint=eastwest;strokeColor=inherit;top=0;left=0;right=0;bottom=0;fontSize=14;align=center;fontFamily=Georgia;fontStyle=0" vertex="1" parent="E2C0H4jiC9S_GUauyO6q-110">
          <mxGeometry y="180" width="285" height="30" as="geometry" />
        </mxCell>
        <mxCell id="E2C0H4jiC9S_GUauyO6q-127" value="" style="shape=partialRectangle;overflow=hidden;connectable=0;fillColor=none;strokeColor=inherit;top=0;left=0;bottom=0;right=0;fontSize=14;align=center;fontFamily=Georgia;fontStyle=0" vertex="1" parent="E2C0H4jiC9S_GUauyO6q-126">
          <mxGeometry width="30" height="30" as="geometry">
            <mxRectangle width="30" height="30" as="alternateBounds" />
          </mxGeometry>
        </mxCell>
        <mxCell id="E2C0H4jiC9S_GUauyO6q-128" value="`birthdate` date NOT NULL" style="shape=partialRectangle;overflow=hidden;connectable=0;fillColor=none;align=center;strokeColor=inherit;top=0;left=0;bottom=0;right=0;spacingLeft=6;fontSize=14;fontFamily=Georgia;fontStyle=0" vertex="1" parent="E2C0H4jiC9S_GUauyO6q-126">
          <mxGeometry x="30" width="255" height="30" as="geometry">
            <mxRectangle width="255" height="30" as="alternateBounds" />
          </mxGeometry>
        </mxCell>
        <mxCell id="E2C0H4jiC9S_GUauyO6q-129" value="" style="shape=tableRow;horizontal=0;startSize=0;swimlaneHead=0;swimlaneBody=0;fillColor=none;collapsible=0;dropTarget=0;points=[[0,0.5],[1,0.5]];portConstraint=eastwest;strokeColor=inherit;top=0;left=0;right=0;bottom=0;fontSize=14;align=center;fontFamily=Georgia;fontStyle=0" vertex="1" parent="E2C0H4jiC9S_GUauyO6q-110">
          <mxGeometry y="210" width="285" height="30" as="geometry" />
        </mxCell>
        <mxCell id="E2C0H4jiC9S_GUauyO6q-130" value="" style="shape=partialRectangle;overflow=hidden;connectable=0;fillColor=none;strokeColor=inherit;top=0;left=0;bottom=0;right=0;fontSize=14;align=center;fontFamily=Georgia;fontStyle=0" vertex="1" parent="E2C0H4jiC9S_GUauyO6q-129">
          <mxGeometry width="30" height="30" as="geometry">
            <mxRectangle width="30" height="30" as="alternateBounds" />
          </mxGeometry>
        </mxCell>
        <mxCell id="E2C0H4jiC9S_GUauyO6q-131" value="`email` varchar(25) NOT NULL" style="shape=partialRectangle;overflow=hidden;connectable=0;fillColor=none;align=center;strokeColor=inherit;top=0;left=0;bottom=0;right=0;spacingLeft=6;fontSize=14;fontFamily=Georgia;fontStyle=0" vertex="1" parent="E2C0H4jiC9S_GUauyO6q-129">
          <mxGeometry x="30" width="255" height="30" as="geometry">
            <mxRectangle width="255" height="30" as="alternateBounds" />
          </mxGeometry>
        </mxCell>
        <mxCell id="E2C0H4jiC9S_GUauyO6q-132" value="" style="shape=tableRow;horizontal=0;startSize=0;swimlaneHead=0;swimlaneBody=0;fillColor=none;collapsible=0;dropTarget=0;points=[[0,0.5],[1,0.5]];portConstraint=eastwest;strokeColor=inherit;top=0;left=0;right=0;bottom=0;fontSize=14;align=center;fontFamily=Georgia;fontStyle=0" vertex="1" parent="E2C0H4jiC9S_GUauyO6q-110">
          <mxGeometry y="240" width="285" height="30" as="geometry" />
        </mxCell>
        <mxCell id="E2C0H4jiC9S_GUauyO6q-133" value="" style="shape=partialRectangle;overflow=hidden;connectable=0;fillColor=none;strokeColor=inherit;top=0;left=0;bottom=0;right=0;fontSize=14;align=center;fontFamily=Georgia;fontStyle=0" vertex="1" parent="E2C0H4jiC9S_GUauyO6q-132">
          <mxGeometry width="30" height="30" as="geometry">
            <mxRectangle width="30" height="30" as="alternateBounds" />
          </mxGeometry>
        </mxCell>
        <mxCell id="E2C0H4jiC9S_GUauyO6q-134" value="`otp` varchar(6) DEFAULT NULL" style="shape=partialRectangle;overflow=hidden;connectable=0;fillColor=none;align=center;strokeColor=inherit;top=0;left=0;bottom=0;right=0;spacingLeft=6;fontSize=14;fontFamily=Georgia;fontStyle=0" vertex="1" parent="E2C0H4jiC9S_GUauyO6q-132">
          <mxGeometry x="30" width="255" height="30" as="geometry">
            <mxRectangle width="255" height="30" as="alternateBounds" />
          </mxGeometry>
        </mxCell>
        <mxCell id="E2C0H4jiC9S_GUauyO6q-135" value="" style="shape=tableRow;horizontal=0;startSize=0;swimlaneHead=0;swimlaneBody=0;fillColor=none;collapsible=0;dropTarget=0;points=[[0,0.5],[1,0.5]];portConstraint=eastwest;strokeColor=inherit;top=0;left=0;right=0;bottom=0;fontSize=14;align=center;fontFamily=Georgia;fontStyle=0" vertex="1" parent="E2C0H4jiC9S_GUauyO6q-110">
          <mxGeometry y="270" width="285" height="30" as="geometry" />
        </mxCell>
        <mxCell id="E2C0H4jiC9S_GUauyO6q-136" value="" style="shape=partialRectangle;overflow=hidden;connectable=0;fillColor=none;strokeColor=inherit;top=0;left=0;bottom=0;right=0;fontSize=14;align=center;fontFamily=Georgia;fontStyle=0" vertex="1" parent="E2C0H4jiC9S_GUauyO6q-135">
          <mxGeometry width="30" height="30" as="geometry">
            <mxRectangle width="30" height="30" as="alternateBounds" />
          </mxGeometry>
        </mxCell>
        <mxCell id="E2C0H4jiC9S_GUauyO6q-137" value="`otp_expiry` datetime DEFAULT NULL" style="shape=partialRectangle;overflow=hidden;connectable=0;fillColor=none;align=center;strokeColor=inherit;top=0;left=0;bottom=0;right=0;spacingLeft=6;fontSize=14;fontFamily=Georgia;fontStyle=0" vertex="1" parent="E2C0H4jiC9S_GUauyO6q-135">
          <mxGeometry x="30" width="255" height="30" as="geometry">
            <mxRectangle width="255" height="30" as="alternateBounds" />
          </mxGeometry>
        </mxCell>
        <mxCell id="E2C0H4jiC9S_GUauyO6q-138" value="" style="shape=tableRow;horizontal=0;startSize=0;swimlaneHead=0;swimlaneBody=0;fillColor=none;collapsible=0;dropTarget=0;points=[[0,0.5],[1,0.5]];portConstraint=eastwest;strokeColor=inherit;top=0;left=0;right=0;bottom=0;fontSize=14;align=center;fontFamily=Georgia;fontStyle=0" vertex="1" parent="E2C0H4jiC9S_GUauyO6q-110">
          <mxGeometry y="300" width="285" height="30" as="geometry" />
        </mxCell>
        <mxCell id="E2C0H4jiC9S_GUauyO6q-139" value="" style="shape=partialRectangle;overflow=hidden;connectable=0;fillColor=none;strokeColor=inherit;top=0;left=0;bottom=0;right=0;fontSize=14;align=center;fontFamily=Georgia;fontStyle=0" vertex="1" parent="E2C0H4jiC9S_GUauyO6q-138">
          <mxGeometry width="30" height="30" as="geometry">
            <mxRectangle width="30" height="30" as="alternateBounds" />
          </mxGeometry>
        </mxCell>
        <mxCell id="E2C0H4jiC9S_GUauyO6q-140" value="`password` varchar(255) NOT NULL" style="shape=partialRectangle;overflow=hidden;connectable=0;fillColor=none;align=center;strokeColor=inherit;top=0;left=0;bottom=0;right=0;spacingLeft=6;fontSize=14;fontFamily=Georgia;fontStyle=0" vertex="1" parent="E2C0H4jiC9S_GUauyO6q-138">
          <mxGeometry x="30" width="255" height="30" as="geometry">
            <mxRectangle width="255" height="30" as="alternateBounds" />
          </mxGeometry>
        </mxCell>
        <mxCell id="E2C0H4jiC9S_GUauyO6q-141" value="" style="shape=tableRow;horizontal=0;startSize=0;swimlaneHead=0;swimlaneBody=0;fillColor=none;collapsible=0;dropTarget=0;points=[[0,0.5],[1,0.5]];portConstraint=eastwest;strokeColor=inherit;top=0;left=0;right=0;bottom=0;fontSize=14;align=center;fontFamily=Georgia;fontStyle=0" vertex="1" parent="E2C0H4jiC9S_GUauyO6q-110">
          <mxGeometry y="330" width="285" height="30" as="geometry" />
        </mxCell>
        <mxCell id="E2C0H4jiC9S_GUauyO6q-142" value="" style="shape=partialRectangle;overflow=hidden;connectable=0;fillColor=none;strokeColor=inherit;top=0;left=0;bottom=0;right=0;fontSize=14;align=center;fontFamily=Georgia;fontStyle=0" vertex="1" parent="E2C0H4jiC9S_GUauyO6q-141">
          <mxGeometry width="30" height="30" as="geometry">
            <mxRectangle width="30" height="30" as="alternateBounds" />
          </mxGeometry>
        </mxCell>
        <mxCell id="E2C0H4jiC9S_GUauyO6q-143" value="`reward_points` int(11) NOT NULL" style="shape=partialRectangle;overflow=hidden;connectable=0;fillColor=none;align=center;strokeColor=inherit;top=0;left=0;bottom=0;right=0;spacingLeft=6;fontSize=14;fontFamily=Georgia;fontStyle=0" vertex="1" parent="E2C0H4jiC9S_GUauyO6q-141">
          <mxGeometry x="30" width="255" height="30" as="geometry">
            <mxRectangle width="255" height="30" as="alternateBounds" />
          </mxGeometry>
        </mxCell>
        <mxCell id="E2C0H4jiC9S_GUauyO6q-144" value="" style="shape=tableRow;horizontal=0;startSize=0;swimlaneHead=0;swimlaneBody=0;fillColor=none;collapsible=0;dropTarget=0;points=[[0,0.5],[1,0.5]];portConstraint=eastwest;strokeColor=inherit;top=0;left=0;right=0;bottom=0;fontSize=14;align=center;fontFamily=Georgia;fontStyle=0" vertex="1" parent="E2C0H4jiC9S_GUauyO6q-110">
          <mxGeometry y="360" width="285" height="30" as="geometry" />
        </mxCell>
        <mxCell id="E2C0H4jiC9S_GUauyO6q-145" value="" style="shape=partialRectangle;overflow=hidden;connectable=0;fillColor=none;strokeColor=inherit;top=0;left=0;bottom=0;right=0;fontSize=14;align=center;fontFamily=Georgia;fontStyle=0" vertex="1" parent="E2C0H4jiC9S_GUauyO6q-144">
          <mxGeometry width="30" height="30" as="geometry">
            <mxRectangle width="30" height="30" as="alternateBounds" />
          </mxGeometry>
        </mxCell>
        <mxCell id="E2C0H4jiC9S_GUauyO6q-146" value="`is_verified` tinyint(1) DEFAULT 0" style="shape=partialRectangle;overflow=hidden;connectable=0;fillColor=none;align=center;strokeColor=inherit;top=0;left=0;bottom=0;right=0;spacingLeft=6;fontSize=14;fontFamily=Georgia;fontStyle=0" vertex="1" parent="E2C0H4jiC9S_GUauyO6q-144">
          <mxGeometry x="30" width="255" height="30" as="geometry">
            <mxRectangle width="255" height="30" as="alternateBounds" />
          </mxGeometry>
        </mxCell>
        <mxCell id="E2C0H4jiC9S_GUauyO6q-147" value="USER PREFERENCES" style="shape=table;startSize=30;container=1;collapsible=1;childLayout=tableLayout;fixedRows=1;rowLines=0;fontStyle=1;align=center;resizeLast=1;fontSize=14;fontFamily=Georgia;" vertex="1" parent="1">
          <mxGeometry x="300" y="750" width="250" height="90" as="geometry" />
        </mxCell>
        <mxCell id="E2C0H4jiC9S_GUauyO6q-148" value="" style="shape=tableRow;horizontal=0;startSize=0;swimlaneHead=0;swimlaneBody=0;fillColor=none;collapsible=0;dropTarget=0;points=[[0,0.5],[1,0.5]];portConstraint=eastwest;strokeColor=inherit;top=0;left=0;right=0;bottom=0;fontSize=14;align=center;fontFamily=Georgia;fontStyle=0" vertex="1" parent="E2C0H4jiC9S_GUauyO6q-147">
          <mxGeometry y="30" width="250" height="30" as="geometry" />
        </mxCell>
        <mxCell id="E2C0H4jiC9S_GUauyO6q-149" value="" style="shape=partialRectangle;overflow=hidden;connectable=0;fillColor=none;strokeColor=inherit;top=0;left=0;bottom=0;right=0;fontSize=14;align=center;fontFamily=Georgia;fontStyle=0" vertex="1" parent="E2C0H4jiC9S_GUauyO6q-148">
          <mxGeometry width="30" height="30" as="geometry">
            <mxRectangle width="30" height="30" as="alternateBounds" />
          </mxGeometry>
        </mxCell>
        <mxCell id="E2C0H4jiC9S_GUauyO6q-150" value="`user_id` int(11) NOT NULL" style="shape=partialRectangle;overflow=hidden;connectable=0;fillColor=none;align=center;strokeColor=inherit;top=0;left=0;bottom=0;right=0;spacingLeft=6;fontSize=14;fontFamily=Georgia;fontStyle=0" vertex="1" parent="E2C0H4jiC9S_GUauyO6q-148">
          <mxGeometry x="30" width="220" height="30" as="geometry">
            <mxRectangle width="220" height="30" as="alternateBounds" />
          </mxGeometry>
        </mxCell>
        <mxCell id="E2C0H4jiC9S_GUauyO6q-151" value="" style="shape=tableRow;horizontal=0;startSize=0;swimlaneHead=0;swimlaneBody=0;fillColor=none;collapsible=0;dropTarget=0;points=[[0,0.5],[1,0.5]];portConstraint=eastwest;strokeColor=inherit;top=0;left=0;right=0;bottom=0;fontSize=14;align=center;fontFamily=Georgia;fontStyle=0" vertex="1" parent="E2C0H4jiC9S_GUauyO6q-147">
          <mxGeometry y="60" width="250" height="30" as="geometry" />
        </mxCell>
        <mxCell id="E2C0H4jiC9S_GUauyO6q-152" value="" style="shape=partialRectangle;overflow=hidden;connectable=0;fillColor=none;strokeColor=inherit;top=0;left=0;bottom=0;right=0;fontSize=14;align=center;fontFamily=Georgia;fontStyle=0" vertex="1" parent="E2C0H4jiC9S_GUauyO6q-151">
          <mxGeometry width="30" height="30" as="geometry">
            <mxRectangle width="30" height="30" as="alternateBounds" />
          </mxGeometry>
        </mxCell>
        <mxCell id="E2C0H4jiC9S_GUauyO6q-153" value="`category` varchar(255) NOT NULL" style="shape=partialRectangle;overflow=hidden;connectable=0;fillColor=none;align=center;strokeColor=inherit;top=0;left=0;bottom=0;right=0;spacingLeft=6;fontSize=14;fontFamily=Georgia;fontStyle=0" vertex="1" parent="E2C0H4jiC9S_GUauyO6q-151">
          <mxGeometry x="30" width="220" height="30" as="geometry">
            <mxRectangle width="220" height="30" as="alternateBounds" />
          </mxGeometry>
        </mxCell>
        <mxCell id="E2C0H4jiC9S_GUauyO6q-169" value="" style="edgeStyle=orthogonalEdgeStyle;fontSize=12;html=1;endArrow=ERoneToMany;rounded=0;exitX=1;exitY=0.5;exitDx=0;exitDy=0;entryX=0.25;entryY=0;entryDx=0;entryDy=0;" edge="1" parent="1" source="E2C0H4jiC9S_GUauyO6q-25" target="E2C0H4jiC9S_GUauyO6q-34">
          <mxGeometry width="100" height="100" relative="1" as="geometry">
            <mxPoint x="-320" y="390" as="sourcePoint" />
            <mxPoint x="-220" y="290" as="targetPoint" />
          </mxGeometry>
        </mxCell>
        <mxCell id="E2C0H4jiC9S_GUauyO6q-170" value="" style="edgeStyle=orthogonalEdgeStyle;fontSize=12;html=1;endArrow=ERoneToMany;rounded=0;entryX=0.5;entryY=0;entryDx=0;entryDy=0;exitX=1;exitY=0.5;exitDx=0;exitDy=0;" edge="1" parent="1" source="E2C0H4jiC9S_GUauyO6q-31" target="E2C0H4jiC9S_GUauyO6q-8">
          <mxGeometry width="100" height="100" relative="1" as="geometry">
            <mxPoint x="-660" y="260" as="sourcePoint" />
            <mxPoint x="-510" y="290" as="targetPoint" />
          </mxGeometry>
        </mxCell>
        <mxCell id="E2C0H4jiC9S_GUauyO6q-171" value="" style="edgeStyle=orthogonalEdgeStyle;fontSize=12;html=1;endArrow=ERoneToMany;rounded=0;exitX=0;exitY=0.5;exitDx=0;exitDy=0;entryX=0.5;entryY=0;entryDx=0;entryDy=0;" edge="1" parent="1" source="E2C0H4jiC9S_GUauyO6q-56" target="E2C0H4jiC9S_GUauyO6q-69">
          <mxGeometry width="100" height="100" relative="1" as="geometry">
            <mxPoint x="-370" y="510" as="sourcePoint" />
            <mxPoint x="-270" y="410" as="targetPoint" />
          </mxGeometry>
        </mxCell>
        <mxCell id="E2C0H4jiC9S_GUauyO6q-173" value="" style="edgeStyle=orthogonalEdgeStyle;fontSize=12;html=1;endArrow=ERmandOne;startArrow=ERmandOne;rounded=0;exitX=1;exitY=0.5;exitDx=0;exitDy=0;entryX=0;entryY=0.5;entryDx=0;entryDy=0;" edge="1" parent="1" source="E2C0H4jiC9S_GUauyO6q-47" target="E2C0H4jiC9S_GUauyO6q-114">
          <mxGeometry width="100" height="100" relative="1" as="geometry">
            <mxPoint x="270" y="510" as="sourcePoint" />
            <mxPoint x="370" y="410" as="targetPoint" />
          </mxGeometry>
        </mxCell>
        <mxCell id="E2C0H4jiC9S_GUauyO6q-174" value="" style="edgeStyle=orthogonalEdgeStyle;fontSize=12;html=1;endArrow=ERoneToMany;rounded=0;exitX=0;exitY=0.5;exitDx=0;exitDy=0;entryX=0.5;entryY=0;entryDx=0;entryDy=0;" edge="1" parent="1" source="E2C0H4jiC9S_GUauyO6q-141" target="E2C0H4jiC9S_GUauyO6q-147">
          <mxGeometry width="100" height="100" relative="1" as="geometry">
            <mxPoint x="710" y="830" as="sourcePoint" />
            <mxPoint x="810" y="730" as="targetPoint" />
          </mxGeometry>
        </mxCell>
        <mxCell id="E2C0H4jiC9S_GUauyO6q-175" value="" style="edgeStyle=orthogonalEdgeStyle;fontSize=12;html=1;endArrow=ERoneToMany;rounded=0;exitX=0;exitY=0.5;exitDx=0;exitDy=0;entryX=0.75;entryY=0;entryDx=0;entryDy=0;" edge="1" parent="1" source="E2C0H4jiC9S_GUauyO6q-98" target="E2C0H4jiC9S_GUauyO6q-34">
          <mxGeometry width="100" height="100" relative="1" as="geometry">
            <mxPoint x="10" y="120" as="sourcePoint" />
            <mxPoint x="110" y="20" as="targetPoint" />
          </mxGeometry>
        </mxCell>
        <mxCell id="E2C0H4jiC9S_GUauyO6q-176" value="" style="edgeStyle=orthogonalEdgeStyle;fontSize=12;html=1;endArrow=ERoneToMany;rounded=0;exitX=0.5;exitY=0;exitDx=0;exitDy=0;entryX=1;entryY=0.5;entryDx=0;entryDy=0;" edge="1" parent="1" source="E2C0H4jiC9S_GUauyO6q-59" target="E2C0H4jiC9S_GUauyO6q-53">
          <mxGeometry width="100" height="100" relative="1" as="geometry">
            <mxPoint x="40" y="890" as="sourcePoint" />
            <mxPoint x="140" y="790" as="targetPoint" />
          </mxGeometry>
        </mxCell>
      </root>
    </mxGraphModel>
  </diagram>
</mxfile>
